<?xml version="1.0" encoding="utf-8"?>
<svg xmlns="http://www.w3.org/2000/svg" width="1042" height="1042" xmlns:bx="https://boxy-svg.com" viewBox="0 0 1042 1042"><defs><bx:export><bx:file format="svg"/></bx:export></defs><path fill="#9E2021" d="M477.821 357.199C482.965 351.627 489.135 346.724 497.117 346.572C503.906 346.442 510.326 349.579 515.059 354.32C523.166 362.442 527.365 374.857 527.28 386.186L527.272 386.981C523.506 388.903 520.847 391.427 517.926 394.426C501.753 384.998 495.514 364.022 477.821 357.199Z"/><path fill="#9E2021" d="M599.942 424.391C607.839 415.555 620.628 409.914 632.417 409.292C640.359 408.872 648.195 411.022 654.086 416.605C659.46 421.697 661.583 428.884 661.676 436.111Q661.716 438.969 661.366 441.806C646.291 432.237 611.661 443.903 601.892 437.12C601.163 436.615 601.289 435.633 601.157 434.814C601.383 431.121 600.999 427.967 599.942 424.391Z"/><path fill="#9E2021" d="M413.36 432.033C407.308 419.079 399.864 411.592 397.51 396.614C394.129 375.098 395.908 327.6 409.193 310.205C411.631 307.012 415.301 304.768 419.321 304.361C421.703 304.119 424.947 304.43 426.775 306.187C428.72 308.056 429.432 310.828 429.06 313.468C428.347 318.517 424.212 323.724 422.187 328.427C417.882 338.423 417.679 351.834 417.75 362.631C417.879 382.318 421.695 402.283 436.177 416.557C427.556 420.809 420.563 425.743 413.36 432.033Z"/><path fill="#D52728" d="M467.144 408.335C465.745 392.134 467.69 370.623 477.821 357.199C495.514 364.022 501.753 384.998 517.926 394.426C516.609 399.421 516.998 405.771 516.837 410.979C545.329 417.543 569.614 429.118 593.665 445.588C596.665 442.417 600.707 439.36 601.157 434.814C601.289 435.633 601.163 436.615 601.892 437.12C611.661 443.903 646.291 432.237 661.366 441.806C657.731 459.923 644.862 473.455 632.097 485.932C642.179 504.494 648.35 523.839 642.018 544.853C638.067 557.966 628.939 570.471 618.337 579.097C615.922 581.062 608.581 585.654 607.394 588.071L607.454 673.343C624.616 679.241 648.886 688.647 657.053 706.169C659.173 710.717 659.788 715.678 657.944 720.421Q657.522 721.533 656.958 722.581Q656.394 723.628 655.699 724.593Q655.003 725.557 654.187 726.423Q653.371 727.288 652.449 728.04C644.399 735.505 628.157 736.787 617.893 737.269C601.347 738.046 555.664 737.495 543.901 726.241Q543.352 725.725 542.855 725.157Q542.359 724.59 541.92 723.977Q541.481 723.364 541.104 722.711Q540.727 722.058 540.415 721.372Q540.104 720.686 539.86 719.972Q539.617 719.259 539.444 718.525Q539.272 717.791 539.172 717.044Q539.071 716.296 539.044 715.543C538.705 708.131 542.337 701.316 542.554 694.007C542.804 685.628 542.494 677.127 542.494 668.731L542.497 612.893C526.754 614.811 511.969 615.155 496.186 613.371L496.209 671.471C496.212 679.685 495.293 688.874 496.322 696.96C496.833 700.984 498.239 704.953 498.99 708.946C499.955 714.08 499.965 719.571 496.766 723.97C492.034 730.475 482.775 732.884 475.244 734.159C455.041 737.579 419.544 739.644 399.916 734.461C394.793 733.108 390.328 731.087 386.023 728.004C383.863 726.137 382.032 723.943 381.015 721.243C379.055 716.043 379.866 709.596 382.338 704.714C390.681 688.234 414.697 678.929 431.081 673.405L431.091 605.542C430.814 597.299 431.031 588.979 431.015 580.727C427.087 575.924 422.79 571.543 419.101 566.511Q417.8 564.714 416.56 562.874Q415.319 561.035 414.141 559.155Q412.962 557.275 411.847 555.357Q410.732 553.439 409.681 551.485Q408.63 549.531 407.645 547.544Q406.66 545.556 405.741 543.536Q404.823 541.516 403.972 539.467Q403.122 537.418 402.34 535.342Q401.558 533.266 400.845 531.165Q400.133 529.063 399.491 526.94Q398.849 524.816 398.278 522.672Q397.707 520.528 397.207 518.367Q396.708 516.205 396.281 514.028Q395.854 511.851 395.5 509.661Q395.145 507.47 394.864 505.27Q394.583 503.069 394.375 500.86C392.689 482.927 394.477 462.16 403.274 446.077C406.026 441.046 409.719 436.446 413.36 432.033C420.563 425.743 427.556 420.809 436.177 416.557C446.205 412.286 456.321 409.614 467.144 408.335Z"/><path d="M476.61 569.431C480.659 568.969 484.403 569.232 488.107 571.107C492.171 573.164 494.697 576.837 495.885 581.167C498.072 589.139 496.039 597.941 491.906 604.932C487.268 612.779 480.628 617.979 471.76 620.21C467.628 620.448 463.97 620.281 460.237 618.291C456.52 616.308 454.1 612.905 452.897 608.92C450.551 601.144 452.451 592.322 456.377 585.368C460.962 577.245 467.631 571.918 476.61 569.431Z"/><path fill="#9E2021" d="M592.899 596.169C597.17 593.77 602.746 589.093 607.394 588.071L607.454 673.343C624.616 679.241 648.886 688.647 657.053 706.169C659.173 710.717 659.788 715.678 657.944 720.421Q657.522 721.533 656.958 722.581Q656.394 723.628 655.699 724.593Q655.003 725.557 654.187 726.423Q653.371 727.288 652.449 728.04C652.091 727.141 652.116 727.38 652.005 726.616C651.416 722.563 650.699 718.674 648.669 715.055C639.439 698.596 610.434 688.745 592.933 683.438C593.219 654.366 593.032 625.243 592.899 596.169Z"/><path fill="#9E2021" d="M431.452 581.048C436.016 585.24 440.736 589.178 445.542 593.088C445.921 623.196 445.441 653.321 445.622 683.432C428.811 688.549 398.823 699.041 390.149 714.776C387.712 719.196 387.853 724.446 386.023 728.004C383.863 726.137 382.032 723.943 381.015 721.243C379.055 716.043 379.866 709.596 382.338 704.714C390.681 688.234 414.697 678.929 431.081 673.405L431.091 605.542C432.251 597.781 431.454 588.927 431.452 581.048Z"/><path fill="#FEFEFE" d="M535.112 497.751C541.647 497.242 548.939 499.397 554.362 503.018Q554.987 503.438 555.59 503.887Q556.194 504.337 556.775 504.816Q557.355 505.295 557.912 505.802Q558.468 506.309 558.999 506.842Q559.53 507.376 560.034 507.935Q560.537 508.494 561.013 509.078Q561.489 509.661 561.935 510.267Q562.382 510.873 562.798 511.5Q563.214 512.127 563.599 512.774Q563.984 513.421 564.336 514.086Q564.689 514.751 565.008 515.433Q565.327 516.115 565.613 516.811Q565.898 517.508 566.149 518.217Q566.4 518.927 566.615 519.648Q566.831 520.369 567.011 521.1Q567.19 521.831 567.334 522.57Q567.488 523.34 567.604 524.116Q567.721 524.893 567.798 525.674Q567.876 526.455 567.914 527.239Q567.953 528.023 567.953 528.808Q567.953 529.593 567.914 530.377Q567.875 531.161 567.797 531.943Q567.719 532.724 567.603 533.5Q567.487 534.276 567.332 535.046Q567.178 535.816 566.985 536.577Q566.793 537.338 566.563 538.088Q566.333 538.839 566.066 539.577Q565.799 540.316 565.496 541.04Q565.193 541.764 564.854 542.472Q564.516 543.181 564.143 543.871Q563.77 544.562 563.363 545.233Q562.956 545.905 562.516 546.555C557.199 554.35 549.659 557.995 540.612 559.668C532.586 559.888 525.456 558.836 518.822 554.006Q518.203 553.56 517.607 553.084Q517.011 552.608 516.44 552.103Q515.868 551.598 515.322 551.065Q514.776 550.532 514.258 549.973Q513.739 549.413 513.249 548.829Q512.759 548.245 512.298 547.637Q511.838 547.029 511.408 546.398Q510.978 545.768 510.58 545.117Q510.182 544.467 509.817 543.797Q509.452 543.127 509.121 542.44Q508.79 541.753 508.493 541.051Q508.196 540.348 507.934 539.632Q507.673 538.915 507.447 538.186Q507.222 537.458 507.032 536.719Q506.843 535.98 506.691 535.232Q506.539 534.485 506.424 533.731C505.193 525.371 507.143 516.767 512.284 510.007C518.068 502.402 525.883 499.067 535.112 497.751Z"/><path d="M523.934 514.499C527.35 514.192 530.471 514.108 533.538 515.897C537.353 518.12 538.585 522.108 539.633 526.101C539.354 527.221 539.052 528.332 538.664 529.42C537.104 533.797 534.787 535.622 530.667 537.561C528.016 537.965 525.353 538.029 522.828 536.992Q522.282 536.771 521.761 536.497Q521.24 536.224 520.748 535.9Q520.256 535.577 519.799 535.206Q519.341 534.835 518.923 534.422Q518.504 534.008 518.128 533.555Q517.753 533.101 517.423 532.613Q517.094 532.125 516.815 531.607Q516.535 531.089 516.308 530.546Q516.086 530.01 515.918 529.455Q515.749 528.899 515.636 528.33Q515.522 527.761 515.465 527.184Q515.407 526.606 515.406 526.026Q515.405 525.446 515.46 524.868Q515.515 524.291 515.627 523.721Q515.738 523.152 515.904 522.596Q516.07 522.04 516.29 521.503C517.787 517.913 520.499 516.023 523.934 514.499Z"/><path fill="#FEFEFE" d="M470.04 467.27C476.76 467.401 482.939 468.582 488.6 472.392Q489.238 472.818 489.855 473.275Q490.471 473.731 491.064 474.218Q491.657 474.705 492.225 475.221Q492.793 475.737 493.335 476.28Q493.876 476.823 494.39 477.393Q494.904 477.962 495.39 478.556Q495.875 479.151 496.33 479.768Q496.785 480.386 497.209 481.026Q497.633 481.665 498.024 482.325Q498.416 482.985 498.774 483.663Q499.132 484.341 499.457 485.037Q499.781 485.732 500.07 486.443Q500.359 487.153 500.613 487.877Q500.867 488.601 501.084 489.337Q501.301 490.073 501.482 490.819Q501.663 491.564 501.806 492.318Q501.955 493.081 502.065 493.851Q502.176 494.621 502.248 495.395Q502.321 496.169 502.355 496.946Q502.388 497.723 502.384 498.5Q502.379 499.278 502.336 500.054Q502.293 500.831 502.211 501.604Q502.129 502.378 502.009 503.146Q501.889 503.914 501.731 504.676Q501.574 505.437 501.378 506.19Q501.183 506.942 500.95 507.684Q500.718 508.426 500.448 509.156Q500.179 509.886 499.875 510.601Q499.57 511.316 499.23 512.016Q498.89 512.715 498.515 513.397Q498.141 514.078 497.733 514.741Q497.326 515.403 496.886 516.044C491.444 523.956 483.787 527.488 474.606 529.208C466.086 529.446 458.511 527.838 451.771 522.37Q451.178 521.887 450.61 521.375Q450.041 520.863 449.499 520.324Q448.957 519.784 448.442 519.219Q447.927 518.653 447.441 518.063Q446.955 517.472 446.499 516.858Q446.043 516.244 445.618 515.608Q445.193 514.972 444.8 514.316Q444.407 513.66 444.047 512.985Q443.687 512.31 443.361 511.618Q443.035 510.926 442.744 510.219Q442.453 509.512 442.197 508.791Q441.942 508.07 441.722 507.338Q441.503 506.605 441.32 505.862Q441.137 505.12 440.991 504.369Q440.845 503.618 440.737 502.861Q440.629 502.104 440.558 501.342Q440.48 500.568 440.44 499.79Q440.401 499.013 440.4 498.234Q440.399 497.456 440.438 496.678Q440.476 495.901 440.552 495.126Q440.629 494.352 440.745 493.582Q440.86 492.812 441.014 492.049Q441.167 491.286 441.359 490.531Q441.55 489.777 441.779 489.033Q442.008 488.289 442.273 487.557Q442.539 486.825 442.841 486.108Q443.142 485.39 443.48 484.689Q443.817 483.987 444.189 483.303Q444.56 482.619 444.966 481.955Q445.371 481.29 445.809 480.647Q446.247 480.003 446.717 479.383Q447.186 478.762 447.686 478.165C453.528 471.251 461.222 468.088 470.04 467.27Z"/><path d="M481.507 491.026C483.74 490.715 485.792 490.869 487.935 491.626C490.945 492.691 493.3 494.828 494.632 497.732Q494.887 498.299 495.083 498.888Q495.279 499.478 495.414 500.084Q495.55 500.691 495.622 501.308Q495.695 501.925 495.705 502.546Q495.714 503.167 495.66 503.786Q495.607 504.406 495.49 505.016Q495.374 505.626 495.196 506.222Q495.018 506.817 494.78 507.391C493.173 511.228 490.367 513.031 486.616 514.44C484.125 514.673 481.797 514.68 479.431 513.74Q478.885 513.526 478.363 513.258Q477.841 512.989 477.348 512.67Q476.856 512.351 476.398 511.984Q475.94 511.617 475.521 511.206Q475.102 510.795 474.727 510.344Q474.351 509.893 474.023 509.407Q473.695 508.92 473.417 508.403Q473.139 507.886 472.915 507.344Q472.678 506.764 472.502 506.163Q472.326 505.562 472.214 504.946Q472.102 504.33 472.055 503.705Q472.008 503.081 472.026 502.455Q472.044 501.829 472.128 501.208Q472.212 500.588 472.359 499.979Q472.507 499.37 472.718 498.781Q472.928 498.191 473.199 497.626C474.981 493.988 477.846 492.375 481.507 491.026Z"/></svg>